<svg xmlns="http://www.w3.org/2000/svg" viewBox="0 0 1528 786" preserveAspectRatio="xMidYMid" width="1528" height="786" xmlns:xlink="http://www.w3.org/1999/xlink" style="shape-rendering:auto;display:block;background-position-x:0%;background-position-y:0%;background-size:auto;background-origin:padding-box;background-clip:border-box;background:scroll rgb(24, 24, 24) none  repeat;width:1528px;height:786px;;animation:none"><g><defs><linearGradient gradientUnits="userSpaceOnUse" y2="0" y1="0" x2="1528" x1="739" id="ldbk-photon-evyglugkalo-lg"><stop offset="0" stop-color="#076414"></stop>

    
<stop offset="1" stop-color="#48ff61"></stop></linearGradient>

  
<mask id="ldbk-photon-evyglugkalo-mask"><g><path fill="#fff" d="M1828 -0.5 L726.7784166746526 -0.5 A15.5 15.5 0 0 1 726.7784166746526 31.5 L1828 31.5" transform="matrix(1,0,0,1,32.718841552734375,0)" style="fill:rgb(255, 255, 255);transform:matrix(1, 0, 0, 1, 32.7188, 0);;animation:none"></path>
<path fill="#000" d="M1573.6792133116571 -0.5 L1588.3584266233142 -0.5 A15.5 15.5 0 0 1 1588.3584266233142 31.5 L1573.6792133116571 31.5 A15.5 15.5 0 0 1 1573.6792133116571 -0.5" transform="matrix(1,0,0,1,0,0)" opacity="1" style="fill:rgb(0, 0, 0);transform:matrix(1, 0, 0, 1, 0, 0);;animation:none"></path>
<path fill="#fff" d="M1828 30.5 L693.661127630915 30.5 A15.5 15.5 0 0 0 693.661127630915 62.5 L1828 62.5" transform="matrix(1,0,0,1,-7.4047088623046875,0)" style="fill:rgb(255, 255, 255);transform:matrix(1, 0, 0, 1, -7.40471, 0);;animation:none"></path>
<path fill="#fff" d="M839.2388775111692 30.5 L863.0071005372196 30.5 A15.5 15.5 0 0 1 863.0071005372196 62.5 L839.2388775111692 62.5 A15.5 15.5 0 0 1 839.2388775111692 30.5" transform="matrix(1,0,0,1,0,0)" opacity="1" style="fill:rgb(255, 255, 255);transform:matrix(1, 0, 0, 1, 0, 0);;animation:none"></path>
<path fill="#fff" d="M1828 61.5 L751.1985224164255 61.5 A15.5 15.5 0 0 1 751.1985224164255 93.5 L1828 93.5" transform="matrix(1,0,0,1,26.020349502563477,0)" style="fill:rgb(255, 255, 255);transform:matrix(1, 0, 0, 1, 26.0203, 0);;animation:none"></path>
<path fill="#000" d="M1583.0934610735112 61.5 L1607.1869221470224 61.5 A15.5 15.5 0 0 1 1607.1869221470224 93.5 L1583.0934610735112 93.5 A15.5 15.5 0 0 1 1583.0934610735112 61.5" transform="matrix(1,0,0,1,-649.0269165039062,0)" opacity="0.769231" style="fill:rgb(0, 0, 0);transform:matrix(1, 0, 0, 1, -649.027, 0);opacity:0.769231;;animation:none"></path>
<path fill="#fff" d="M1828 92.5 L687.5468363571453 92.5 A15.5 15.5 0 0 0 687.5468363571453 124.5 L1828 124.5" transform="matrix(1,0,0,1,-40.15383529663086,0)" style="fill:rgb(255, 255, 255);transform:matrix(1, 0, 0, 1, -40.1538, 0);;animation:none"></path>
<path fill="#fff" d="M799.5874024422643 92.5 L814.0313974340207 92.5 A15.5 15.5 0 0 1 814.0313974340207 124.5 L799.5874024422643 124.5 A15.5 15.5 0 0 1 799.5874024422643 92.5" transform="matrix(1,0,0,1,0,0)" opacity="0.439561" style="fill:rgb(255, 255, 255);transform:matrix(1, 0, 0, 1, 0, 0);opacity:0.439561;;animation:none"></path>
<path fill="#fff" d="M1828 123.5 L729.1429090048406 123.5 A15.5 15.5 0 0 1 729.1429090048406 155.5 L1828 155.5" transform="matrix(1,0,0,1,0.26599884033203125,0)" style="fill:rgb(255, 255, 255);transform:matrix(1, 0, 0, 1, 0.265999, 0);;animation:none"></path>
<path fill="#000" d="M1590.7376490116549 123.5 L1622.4752980233097 123.5 A15.5 15.5 0 0 1 1622.4752980233097 155.5 L1590.7376490116549 155.5 A15.5 15.5 0 0 1 1590.7376490116549 123.5" transform="matrix(1,0,0,1,-838.5463256835938,0)" opacity="0.769231" style="fill:rgb(0, 0, 0);transform:matrix(1, 0, 0, 1, -838.546, 0);opacity:0.769231;;animation:none"></path>
<path fill="#fff" d="M1828 154.5 L703.0413443014947 154.5 A15.5 15.5 0 0 0 703.0413443014947 186.5 L1828 186.5" transform="matrix(1,0,0,1,-1.1886345148086548,0)" style="fill:rgb(255, 255, 255);transform:matrix(1, 0, 0, 1, -1.18863, 0);;animation:none"></path>
<path fill="#fff" d="M762.9794530159675 154.5 L792.3893187552641 154.5 A15.5 15.5 0 0 1 792.3893187552641 186.5 L762.9794530159675 186.5 A15.5 15.5 0 0 1 762.9794530159675 154.5" transform="matrix(1,0,0,1,0,0)" opacity="0.604396" style="fill:rgb(255, 255, 255);transform:matrix(1, 0, 0, 1, 0, 0);opacity:0.604396;;animation:none"></path>
<path fill="#fff" d="M1828 185.5 L721.3491326159989 185.5 A15.5 15.5 0 0 1 721.3491326159989 217.5 L1828 217.5" transform="matrix(1,0,0,1,2.6784019470214844,0)" style="fill:rgb(255, 255, 255);transform:matrix(1, 0, 0, 1, 2.6784, 0);;animation:none"></path>
<path fill="#000" d="M1592.3200300907681 185.5 L1625.6400601815362 185.5 A15.5 15.5 0 0 1 1625.6400601815362 217.5 L1592.3200300907681 217.5 A15.5 15.5 0 0 1 1592.3200300907681 185.5" transform="matrix(1,0,0,1,-659.2949829101562,0)" opacity="0.879121" style="fill:rgb(0, 0, 0);transform:matrix(1, 0, 0, 1, -659.295, 0);opacity:0.879121;;animation:none"></path>
<path fill="#fff" d="M1828 216.5 L661.2691445640047 216.5 A15.5 15.5 0 0 0 661.2691445640047 248.5 L1828 248.5" transform="matrix(1,0,0,1,-31.276321411132812,0)" style="fill:rgb(255, 255, 255);transform:matrix(1, 0, 0, 1, -31.2763, 0);;animation:none"></path>
<path fill="#fff" d="M795.6787899152492 216.5 L823.083418667702 216.5 A15.5 15.5 0 0 1 823.083418667702 248.5 L795.6787899152492 248.5 A15.5 15.5 0 0 1 795.6787899152492 216.5" transform="matrix(1,0,0,1,0,0)" opacity="0.274725" style="fill:rgb(255, 255, 255);transform:matrix(1, 0, 0, 1, 0, 0);opacity:0.274725;;animation:none"></path>
<path fill="#fff" d="M1828 247.5 L727.0646790696903 247.5 A15.5 15.5 0 0 1 727.0646790696903 279.5 L1828 279.5" transform="matrix(1,0,0,1,30.33954620361328,0)" style="fill:rgb(255, 255, 255);transform:matrix(1, 0, 0, 1, 30.3395, 0);;animation:none"></path>
<path fill="#000" d="M1590.6777719716008 247.5 L1622.3555439432016 247.5 A15.5 15.5 0 0 1 1622.3555439432016 279.5 L1590.6777719716008 279.5 A15.5 15.5 0 0 1 1590.6777719716008 247.5" transform="matrix(1,0,0,1,-1141.8162841796875,0)" opacity="0.21978" style="fill:rgb(0, 0, 0);transform:matrix(1, 0, 0, 1, -1141.82, 0);opacity:0.21978;;animation:none"></path>
<path fill="#fff" d="M1828 278.5 L665.2686044923367 278.5 A15.5 15.5 0 0 0 665.2686044923367 310.5 L1828 310.5" transform="matrix(1,0,0,1,-29.540559768676758,0)" style="fill:rgb(255, 255, 255);transform:matrix(1, 0, 0, 1, -29.5406, 0);;animation:none"></path>
<path fill="#fff" d="M797.9478667322545 278.5 L821.6772570279323 278.5 A15.5 15.5 0 0 1 821.6772570279323 310.5 L797.9478667322545 310.5 A15.5 15.5 0 0 1 797.9478667322545 278.5" transform="matrix(1,0,0,1,0,0)" opacity="1" style="fill:rgb(255, 255, 255);transform:matrix(1, 0, 0, 1, 0, 0);;animation:none"></path>
<path fill="#fff" d="M1828 309.5 L731.2924007616477 309.5 A15.5 15.5 0 0 1 731.2924007616477 341.5 L1828 341.5" transform="matrix(1,0,0,1,7.679935455322266,0)" style="fill:rgb(255, 255, 255);transform:matrix(1, 0, 0, 1, 7.67994, 0);;animation:none"></path>
<path fill="#000" d="M1584.9095365713156 309.5 L1610.8190731426312 309.5 A15.5 15.5 0 0 1 1610.8190731426312 341.5 L1584.9095365713156 341.5 A15.5 15.5 0 0 1 1584.9095365713156 309.5" transform="matrix(1,0,0,1,-420.6617431640625,0)" opacity="0.989011" style="fill:rgb(0, 0, 0);transform:matrix(1, 0, 0, 1, -420.662, 0);opacity:0.989011;;animation:none"></path>
<path fill="#fff" d="M1828 340.5 L706.0409557291882 340.5 A15.5 15.5 0 0 0 706.0409557291882 372.5 L1828 372.5" transform="matrix(1,0,0,1,-15.76938247680664,0)" style="fill:rgb(255, 255, 255);transform:matrix(1, 0, 0, 1, -15.7694, 0);;animation:none"></path>
<path fill="#fff" d="M784.8491886547138 340.5 L798.4128445729513 340.5 A15.5 15.5 0 0 1 798.4128445729513 372.5 L784.8491886547138 372.5 A15.5 15.5 0 0 1 784.8491886547138 340.5" transform="matrix(1,0,0,1,0,0)" opacity="0.274725" style="fill:rgb(255, 255, 255);transform:matrix(1, 0, 0, 1, 0, 0);opacity:0.274725;;animation:none"></path>
<path fill="#fff" d="M1828 371.5 L737.0646069356721 371.5 A15.5 15.5 0 0 1 737.0646069356721 403.5 L1828 403.5" transform="matrix(1,0,0,1,2.577390670776367,0)" style="fill:rgb(255, 255, 255);transform:matrix(1, 0, 0, 1, 2.57739, 0);;animation:none"></path>
<path fill="#000" d="M1598.7854219612364 371.5 L1638.5708439224727 371.5 A15.5 15.5 0 0 1 1638.5708439224727 403.5 L1598.7854219612364 403.5 A15.5 15.5 0 0 1 1598.7854219612364 371.5" transform="matrix(1,0,0,1,-705.0192260742188,0)" opacity="0.879121" style="fill:rgb(0, 0, 0);transform:matrix(1, 0, 0, 1, -705.019, 0);opacity:0.879121;;animation:none"></path>
<path fill="#fff" d="M1828 402.5 L709.4655695341181 402.5 A15.5 15.5 0 0 0 709.4655695341181 434.5 L1828 434.5" transform="matrix(1,0,0,1,-43.58535385131836,0)" style="fill:rgb(255, 255, 255);transform:matrix(1, 0, 0, 1, -43.5854, 0);;animation:none"></path>
<path fill="#fff" d="M804.7535781322102 402.5 L824.746428722302 402.5 A15.5 15.5 0 0 1 824.746428722302 434.5 L804.7535781322102 434.5 A15.5 15.5 0 0 1 804.7535781322102 402.5" transform="matrix(1,0,0,1,0,0)" opacity="0.714286" style="fill:rgb(255, 255, 255);transform:matrix(1, 0, 0, 1, 0, 0);opacity:0.714286;;animation:none"></path>
<path fill="#fff" d="M1828 433.5 L760.5579371770382 433.5 A15.5 15.5 0 0 1 760.5579371770382 465.5 L1828 465.5" transform="matrix(1,0,0,1,26.450271606445312,0)" style="fill:rgb(255, 255, 255);transform:matrix(1, 0, 0, 1, 26.4503, 0);;animation:none"></path>
<path fill="#000" d="M1597.0977347396326 433.5 L1635.1954694792653 433.5 A15.5 15.5 0 0 1 1635.1954694792653 465.5 L1597.0977347396326 465.5 A15.5 15.5 0 0 1 1597.0977347396326 433.5" transform="matrix(1,0,0,1,-1348.099365234375,0)" opacity="0.21978" style="fill:rgb(0, 0, 0);transform:matrix(1, 0, 0, 1, -1348.1, 0);opacity:0.21978;;animation:none"></path>
<path fill="#fff" d="M1828 464.5 L740.5439438949744 464.5 A15.5 15.5 0 0 0 740.5439438949744 496.5 L1828 496.5" transform="matrix(1,0,0,1,-15.11426067352295,0)" style="fill:rgb(255, 255, 255);transform:matrix(1, 0, 0, 1, -15.1143, 0);;animation:none"></path>
<path fill="#fff" d="M825.6643634390335 464.5 L849.8617904677116 464.5 A15.5 15.5 0 0 1 849.8617904677116 496.5 L825.6643634390335 496.5 A15.5 15.5 0 0 1 825.6643634390335 464.5" transform="matrix(1,0,0,1,0,0)" opacity="0.384615" style="fill:rgb(255, 255, 255);transform:matrix(1, 0, 0, 1, 0, 0);opacity:0.384615;;animation:none"></path>
<path fill="#fff" d="M1828 495.5 L757.1365141169213 495.5 A15.5 15.5 0 0 1 757.1365141169213 527.5 L1828 527.5" transform="matrix(1,0,0,1,7.093662738800049,0)" style="fill:rgb(255, 255, 255);transform:matrix(1, 0, 0, 1, 7.09366, 0);;animation:none"></path>
<path fill="#000" d="M1569.135025265825 495.5 L1579.2700505316502 495.5 A15.5 15.5 0 0 1 1579.2700505316502 527.5 L1569.135025265825 527.5 A15.5 15.5 0 0 1 1569.135025265825 495.5" transform="matrix(1,0,0,1,-977.6200561523438,0)" opacity="0.439561" style="fill:rgb(0, 0, 0);transform:matrix(1, 0, 0, 1, -977.62, 0);opacity:0.439561;;animation:none"></path>
<path fill="#fff" d="M1828 526.5 L722.9326774053798 526.5 A15.5 15.5 0 0 0 722.9326774053798 558.5 L1828 558.5" transform="matrix(1,0,0,1,-35.83839416503906,0)" style="fill:rgb(255, 255, 255);transform:matrix(1, 0, 0, 1, -35.8384, 0);;animation:none"></path>
<path fill="#fff" d="M861.0086097330179 526.5 L895.9567590807181 526.5 A15.5 15.5 0 0 1 895.9567590807181 558.5 L861.0086097330179 558.5 A15.5 15.5 0 0 1 861.0086097330179 526.5" transform="matrix(1,0,0,1,0,0)" opacity="0.10989" style="fill:rgb(255, 255, 255);transform:matrix(1, 0, 0, 1, 0, 0);opacity:0.10989;;animation:none"></path>
<path fill="#fff" d="M1828 557.5 L783.487439580992 557.5 A15.5 15.5 0 0 1 783.487439580992 589.5 L1828 589.5" transform="matrix(1,0,0,1,25.205665588378906,0)" style="fill:rgb(255, 255, 255);transform:matrix(1, 0, 0, 1, 25.2057, 0);;animation:none"></path>
<path fill="#000" d="M1571.050048453071 557.5 L1583.100096906142 557.5 A15.5 15.5 0 0 1 1583.100096906142 589.5 L1571.050048453071 589.5 A15.5 15.5 0 0 1 1571.050048453071 557.5" transform="matrix(1,0,0,1,-114.51612854003906,0)" opacity="1" style="fill:rgb(0, 0, 0);transform:matrix(1, 0, 0, 1, -114.516, 0);;animation:none"></path>
<path fill="#fff" d="M1828 588.5 L750.0747465549373 588.5 A15.5 15.5 0 0 0 750.0747465549373 620.5 L1828 620.5" transform="matrix(1,0,0,1,-1.6054329872131348,0)" style="fill:rgb(255, 255, 255);transform:matrix(1, 0, 0, 1, -1.60543, 0);;animation:none"></path>
<path fill="#fff" d="M827.1938534351564 588.5 L865.3688583384737 588.5 A15.5 15.5 0 0 1 865.3688583384737 620.5 L827.1938534351564 620.5 A15.5 15.5 0 0 1 827.1938534351564 588.5" transform="matrix(1,0,0,1,0,0)" opacity="0.604395" style="fill:rgb(255, 255, 255);transform:matrix(1, 0, 0, 1, 0, 0);opacity:0.604395;;animation:none"></path>
<path fill="#fff" d="M1828 619.5 L786.200962408662 619.5 A15.5 15.5 0 0 1 786.200962408662 651.5 L1828 651.5" transform="matrix(1,0,0,1,2.77663254737854,0)" style="fill:rgb(255, 255, 255);transform:matrix(1, 0, 0, 1, 2.77663, 0);;animation:none"></path>
<path fill="#000" d="M1573.5633830973716 619.5 L1588.1267661947431 619.5 A15.5 15.5 0 0 1 1588.1267661947431 651.5 L1573.5633830973716 651.5 A15.5 15.5 0 0 1 1573.5633830973716 619.5" transform="matrix(1,0,0,1,-577.7744750976562,0)" opacity="0.989011" style="fill:rgb(0, 0, 0);transform:matrix(1, 0, 0, 1, -577.774, 0);opacity:0.989011;;animation:none"></path>
<path fill="#fff" d="M1828 650.5 L741.4430087758408 650.5 A15.5 15.5 0 0 0 741.4430087758408 682.5 L1828 682.5" transform="matrix(1,0,0,1,-36.5999755859375,0)" style="fill:rgb(255, 255, 255);transform:matrix(1, 0, 0, 1, -36.6, 0);;animation:none"></path>
<path fill="#fff" d="M854.6000259395362 650.5 L892.8706123765654 650.5 A15.5 15.5 0 0 1 892.8706123765654 682.5 L854.6000259395362 682.5 A15.5 15.5 0 0 1 854.6000259395362 650.5" transform="matrix(1,0,0,1,0,0)" opacity="0.21978" style="fill:rgb(255, 255, 255);transform:matrix(1, 0, 0, 1, 0, 0);opacity:0.21978;;animation:none"></path>
<path fill="#fff" d="M1828 681.5 L761.775156102869 681.5 A15.5 15.5 0 0 1 761.775156102869 713.5 L1828 713.5" transform="matrix(1,0,0,1,42.60588073730469,0)" style="fill:rgb(255, 255, 255);transform:matrix(1, 0, 0, 1, 42.6059, 0);;animation:none"></path>
<path fill="#000" d="M1575.5938963655115 681.5 L1592.187792731023 681.5 A15.5 15.5 0 0 1 1592.187792731023 713.5 L1575.5938963655115 713.5 A15.5 15.5 0 0 1 1575.5938963655115 681.5" transform="matrix(1,0,0,1,-1139.814208984375,0)" opacity="0.54945" style="fill:rgb(0, 0, 0);transform:matrix(1, 0, 0, 1, -1139.81, 0);opacity:0.54945;;animation:none"></path>
<path fill="#fff" d="M1828 712.5 L738.4382566389401 712.5 A15.5 15.5 0 0 0 738.4382566389401 744.5 L1828 744.5" transform="matrix(1,0,0,1,-40.00388717651367,0)" style="fill:rgb(255, 255, 255);transform:matrix(1, 0, 0, 1, -40.0039, 0);;animation:none"></path>
<path fill="#fff" d="M855.8015891022347 712.5 L873.6986287731862 712.5 A15.5 15.5 0 0 1 873.6986287731862 744.5 L855.8015891022347 744.5 A15.5 15.5 0 0 1 855.8015891022347 712.5" transform="matrix(1,0,0,1,0,0)" opacity="0.0549442" style="fill:rgb(255, 255, 255);transform:matrix(1, 0, 0, 1, 0, 0);opacity:0.0549442;;animation:none"></path>
<path fill="#fff" d="M1828 743.5 L780.4445731455463 743.5 A15.5 15.5 0 0 1 780.4445731455463 775.5 L1828 775.5" transform="matrix(1,0,0,1,21.74927520751953,0)" style="fill:rgb(255, 255, 255);transform:matrix(1, 0, 0, 1, 21.7493, 0);;animation:none"></path>
<path fill="#000" d="M1582.9625763984795 743.5 L1606.925152796959 743.5 A15.5 15.5 0 0 1 1606.925152796959 775.5 L1582.9625763984795 775.5 A15.5 15.5 0 0 1 1582.9625763984795 743.5" transform="matrix(1,0,0,1,-1010.3427734375,0)" opacity="0.32967" style="fill:rgb(0, 0, 0);transform:matrix(1, 0, 0, 1, -1010.34, 0);opacity:0.32967;;animation:none"></path>
<path fill="#fff" d="M1828 774.5 L730.4382075394379 774.5 A15.5 15.5 0 0 0 730.4382075394379 806.5 L1828 806.5" transform="matrix(1,0,0,1,-5.518731117248535,0)" style="fill:rgb(255, 255, 255);transform:matrix(1, 0, 0, 1, -5.51873, 0);;animation:none"></path>
<path fill="#fff" d="M804.0384118827702 774.5 L820.8405645493352 774.5 A15.5 15.5 0 0 1 820.8405645493352 806.5 L804.0384118827702 806.5 A15.5 15.5 0 0 1 804.0384118827702 774.5" transform="matrix(1,0,0,1,0,0)" opacity="0.164835" style="fill:rgb(255, 255, 255);transform:matrix(1, 0, 0, 1, 0, 0);opacity:0.164835;;animation:none"></path></g></mask></defs>


<rect mask="url(#ldbk-photon-evyglugkalo-mask)" fill="url(#ldbk-photon-evyglugkalo-lg)" height="786" width="1528" y="0" x="0" style="fill:url('#ldbk-photon-evyglugkalo-lg');;animation:none"></rect>
<g></g></g><!-- [ldio] generated by https://loading.io --></svg>